<svg width="20" height="20" viewBox="0 0 20 20" fill="none" xmlns="http://www.w3.org/2000/svg">
<path d="M10 0.3125C4.64844 0.3125 0.3125 4.64844 0.3125 10C0.3125 15.3516 4.64844 19.6875 10 19.6875C15.3516 19.6875 19.6875 15.3516 19.6875 10C19.6875 4.64844 15.3516 0.3125 10 0.3125ZM10 17.8125C5.68359 17.8125 2.1875 14.3164 2.1875 10C2.1875 5.68359 5.68359 2.1875 10 2.1875C14.3164 2.1875 17.8125 5.68359 17.8125 10C17.8125 14.3164 14.3164 17.8125 10 17.8125ZM13.9766 7.57031L11.5469 10L13.9766 12.4297C14.1602 12.6133 14.1602 12.9102 13.9766 13.0938L13.0938 13.9766C12.9102 14.1602 12.6133 14.1602 12.4297 13.9766L10 11.5469L7.57031 13.9766C7.38672 14.1602 7.08984 14.1602 6.90625 13.9766L6.02344 13.0938C5.83984 12.9102 5.83984 12.6133 6.02344 12.4297L8.45312 10L6.02344 7.57031C5.83984 7.38672 5.83984 7.08984 6.02344 6.90625L6.90625 6.02344C7.08984 5.83984 7.38672 5.83984 7.57031 6.02344L10 8.45312L12.4297 6.02344C12.6133 5.83984 12.9102 5.83984 13.0938 6.02344L13.9766 6.90625C14.1602 7.08984 14.1602 7.38672 13.9766 7.57031Z" fill="#7B2CBF"/>
</svg>
