<svg width="128" height="50" viewBox="0 0 128 50" fill="none" xmlns="http://www.w3.org/2000/svg">
<g clip-path="url(#clip0)">
<path d="M28.9782 19.8807V22.5222H24.8256V33.6486H21.7244V22.5222H17.5718V19.8807H28.9782Z" fill="#652281"/>
<path d="M44.1198 26.7541C44.1198 27.9322 43.9455 28.9677 43.5915 29.8659C43.2428 30.7587 42.762 31.5089 42.1492 32.1112C41.5416 32.7135 40.8125 33.1678 39.9725 33.4743C39.1325 33.7807 38.2291 33.9339 37.2622 33.9339C36.3218 33.9339 35.4343 33.7807 34.5995 33.4743C33.7648 33.1678 33.0357 32.7135 32.4123 32.1112C31.7889 31.5089 31.2975 30.7587 30.9435 29.8659C30.5896 28.973 30.4047 27.9375 30.4047 26.7541C30.4047 25.5759 30.5896 24.5404 30.9594 23.6423C31.3292 22.7494 31.8311 21.9939 32.4598 21.3863C33.0885 20.7788 33.8176 20.3191 34.6471 20.0127C35.4765 19.7063 36.3482 19.5531 37.2622 19.5531C38.2026 19.5531 39.0902 19.7063 39.925 20.0127C40.7597 20.3191 41.4888 20.7735 42.1122 21.3863C42.7356 21.9939 43.2269 22.7494 43.5809 23.6423C43.9402 24.5404 44.1198 25.5759 44.1198 26.7541ZM33.6063 26.7541C33.6063 27.4303 33.6908 28.0379 33.8546 28.582C34.0184 29.1262 34.2561 29.5911 34.5678 29.9821C34.8795 30.373 35.2599 30.6742 35.709 30.8855C36.158 31.0968 36.6758 31.2025 37.2569 31.2025C37.8275 31.2025 38.34 31.0968 38.7944 30.8855C39.254 30.6742 39.6344 30.373 39.9461 29.9821C40.2578 29.5911 40.4955 29.1262 40.6593 28.582C40.8231 28.0379 40.9076 27.4303 40.9076 26.7541C40.9076 26.0778 40.8231 25.465 40.6593 24.9155C40.4955 24.3661 40.2525 23.8959 39.9461 23.5049C39.6344 23.1139 39.2487 22.8128 38.7944 22.6015C38.3347 22.3901 37.8222 22.2845 37.2569 22.2845C36.6758 22.2845 36.158 22.3954 35.709 22.612C35.2599 22.8286 34.8795 23.1351 34.5678 23.526C34.2561 23.917 34.0184 24.3872 33.8546 24.9366C33.6908 25.4861 33.6063 26.0937 33.6063 26.7541Z" fill="#652281"/>
<path d="M53.9149 22.2634C52.4726 22.2634 51.4265 22.6649 50.7872 23.4679C50.1427 24.271 49.8257 25.3646 49.8257 26.7541C49.8257 27.4303 49.9049 28.0432 50.0634 28.5926C50.2219 29.1421 50.4597 29.6175 50.7767 30.0138C51.0937 30.41 51.4899 30.7217 51.9707 30.9383C52.4462 31.155 53.0062 31.2659 53.6402 31.2659C53.9836 31.2659 54.2794 31.2606 54.5225 31.2448C54.7655 31.2342 54.9821 31.2025 55.167 31.1655V26.379H58.2683V33.1943C57.8984 33.3422 57.3014 33.4954 56.4772 33.6592C55.6531 33.823 54.644 33.9075 53.4394 33.9075C52.4039 33.9075 51.4688 33.749 50.6287 33.432C49.7887 33.115 49.0702 32.6501 48.4732 32.0425C47.8762 31.435 47.4165 30.6848 47.0943 29.7972C46.772 28.9096 46.6082 27.8952 46.6082 26.7593C46.6082 25.6076 46.7878 24.588 47.1471 23.7004C47.5064 22.8128 47.9924 22.0626 48.6158 21.4445C49.2393 20.8263 49.9683 20.3614 50.8136 20.0444C51.6537 19.7274 52.5518 19.5689 53.5081 19.5689C54.1579 19.5689 54.7444 19.6112 55.2674 19.6957C55.7904 19.7803 56.2395 19.8806 56.6199 19.9916C56.995 20.1025 57.3067 20.2188 57.555 20.3403C57.798 20.4618 57.9777 20.5516 58.0833 20.6203L57.1905 23.1034C56.7678 22.8762 56.2818 22.6807 55.7323 22.5169C55.1617 22.3479 54.5647 22.2634 53.9149 22.2634Z" fill="#652281"/>
<path d="M61.6442 33.6486V19.8807H70.9426V22.4853H64.7401V25.1903H70.2452V27.7315H64.7401V31.0493H71.3969V33.6539H61.6442V33.6486Z" fill="#652281"/>
<path d="M84.3988 19.8807V22.5222H80.2462V33.6486H77.145V22.5222H72.9924V19.8807H84.3988Z" fill="#652281"/>
<path d="M95.1871 19.8807H98.2883V33.6539H95.1871V27.8054H89.9831V33.6486H86.8819V19.8807H89.9831V25.148H95.1871V19.8807Z" fill="#652281"/>
<path d="M101.965 33.6486V19.8807H111.264V22.4853H105.061V25.1903H110.566V27.7315H105.061V31.0493H111.718V33.6539H101.965V33.6486Z" fill="#652281"/>
<path d="M118.533 19.7169C120.599 19.7169 122.184 20.0867 123.283 20.8211C124.382 21.5554 124.931 22.6966 124.931 24.2498C124.931 25.2167 124.709 26.0039 124.266 26.6061C123.822 27.2084 123.183 27.6839 122.348 28.0273C122.628 28.3707 122.918 28.767 123.22 29.2107C123.526 29.6545 123.827 30.1195 124.123 30.6002C124.419 31.0863 124.709 31.5882 124.989 32.1112C125.269 32.6342 125.528 33.1467 125.766 33.6486H122.306C122.052 33.1995 121.798 32.7399 121.54 32.275C121.281 31.8101 121.016 31.361 120.742 30.9225C120.467 30.484 120.198 30.0719 119.933 29.6809C119.669 29.29 119.4 28.936 119.136 28.619H117.604V33.6486H114.502V20.0761C115.179 19.944 115.876 19.849 116.6 19.7961C117.318 19.7486 117.968 19.7169 118.533 19.7169ZM118.713 22.3637C118.486 22.3637 118.285 22.369 118.105 22.3849C117.926 22.4007 117.757 22.4113 117.598 22.4271V26.1624H118.47C119.638 26.1624 120.472 26.0144 120.974 25.7238C121.476 25.4333 121.73 24.9367 121.73 24.234C121.73 23.5577 121.476 23.077 120.964 22.7917C120.462 22.5064 119.706 22.3637 118.713 22.3637Z" fill="#652281"/>
<path d="M20.5093 44.0828C21.0112 44.0828 21.4021 43.993 21.6822 43.8081C21.9622 43.6232 22.0995 43.3273 22.0995 42.9152C22.0995 42.6775 22.052 42.482 21.9622 42.3235C21.8724 42.165 21.7508 42.0329 21.6029 41.922C21.455 41.8111 21.2806 41.7212 21.0904 41.642C20.9002 41.5627 20.6942 41.4835 20.4829 41.399C20.2134 41.2933 19.9757 41.1876 19.7643 41.0767C19.553 40.9657 19.3734 40.839 19.2254 40.7016C19.0775 40.5642 18.9613 40.4004 18.8873 40.2208C18.8081 40.0412 18.7711 39.8299 18.7711 39.5868C18.7711 39.0321 18.956 38.6147 19.3205 38.3294C19.6851 38.0441 20.1976 37.9015 20.8474 37.9015C21.0218 37.9015 21.1908 37.9121 21.3599 37.9385C21.5289 37.9649 21.6822 37.9966 21.8301 38.0336C21.978 38.0758 22.1101 38.1181 22.2316 38.1709C22.3531 38.2185 22.4535 38.2713 22.5328 38.3294L22.3109 38.8578C22.1312 38.7362 21.9146 38.6359 21.6557 38.5619C21.3969 38.4879 21.1221 38.451 20.821 38.451C20.6149 38.451 20.43 38.4721 20.2557 38.5091C20.0866 38.5513 19.9387 38.6147 19.8119 38.7045C19.6851 38.7944 19.59 38.9053 19.5213 39.0427C19.4473 39.18 19.4156 39.3438 19.4156 39.534C19.4156 39.7348 19.4526 39.8985 19.5266 40.0359C19.6006 40.1733 19.7062 40.2895 19.8383 40.3899C19.9704 40.4903 20.1289 40.5801 20.3085 40.6593C20.4881 40.7386 20.6836 40.8231 20.895 40.9129C21.1486 41.0186 21.3916 41.1242 21.6188 41.2299C21.8459 41.3356 22.0414 41.4571 22.2105 41.5997C22.3796 41.7424 22.5116 41.9167 22.612 42.1228C22.7124 42.3288 22.7599 42.5771 22.7599 42.8783C22.7599 43.4594 22.5592 43.8979 22.1524 44.1885C21.7456 44.4791 21.1961 44.627 20.4987 44.627C20.2504 44.627 20.0232 44.6111 19.8172 44.5794C19.6111 44.5477 19.4315 44.5108 19.2677 44.4632C19.1039 44.4157 18.9719 44.3681 18.8556 44.3206C18.7447 44.273 18.6549 44.2255 18.5967 44.1885L18.8028 43.639C18.8662 43.676 18.9507 43.7183 19.0564 43.7711C19.162 43.8187 19.2836 43.8662 19.4262 43.9138C19.5689 43.9613 19.7326 43.9983 19.9123 44.03C20.0919 44.067 20.2927 44.0828 20.5093 44.0828Z" fill="#6B6B6B"/>
<path d="M28.4974 38.0442V38.5936H26.4317V44.4949H25.7977V38.5936H23.732V38.0442H28.4974Z" fill="#6B6B6B"/>
<path d="M33.8282 44.4949C33.7067 44.1779 33.5904 43.8715 33.4901 43.5809C33.3844 43.2904 33.2893 43.0051 33.1942 42.7251H30.0454C29.9398 43.0051 29.8341 43.2904 29.7284 43.5809C29.6281 43.8715 29.5171 44.1779 29.4009 44.4949H28.7405C28.9835 43.824 29.216 43.1953 29.4326 42.6194C29.6492 42.0382 29.8658 41.4888 30.0718 40.971C30.2832 40.4533 30.4892 39.9567 30.6953 39.4812C30.9013 39.0057 31.1179 38.5249 31.3451 38.0442H31.9051C32.1323 38.5196 32.3489 39.0004 32.5549 39.4759C32.761 39.9514 32.967 40.4533 33.1784 40.971C33.3897 41.4888 33.601 42.0382 33.8176 42.6194C34.0342 43.2005 34.272 43.824 34.5308 44.4949H33.8282ZM31.6092 38.768C31.3768 39.3016 31.1496 39.8457 30.9277 40.4005C30.7058 40.9499 30.4786 41.5469 30.2409 42.1862H32.9934C32.7557 41.5469 32.5232 40.9499 32.2961 40.4005C32.0742 39.8457 31.8417 39.3016 31.6092 38.768Z" fill="#6B6B6B"/>
<path d="M36.7973 44.4949V41.8428C36.3535 41.1665 35.9467 40.5114 35.5769 39.8827C35.2071 39.254 34.8637 38.6412 34.5467 38.0442H35.2811C35.5399 38.5883 35.8305 39.1431 36.1422 39.7031C36.4539 40.2631 36.7868 40.802 37.1249 41.3092C37.4524 40.802 37.78 40.2631 38.097 39.7031C38.414 39.1431 38.7046 38.5883 38.974 38.0442H39.6608C39.3333 38.6359 38.9846 39.2487 38.62 39.8827C38.2555 40.5167 37.8592 41.1665 37.426 41.8216V44.4949H36.7973Z" fill="#6B6B6B"/>
<path d="M47.7705 38.0442H48.4045V44.4949H47.7705V41.3937H44.273V44.4949H43.639V38.0442H44.273V40.8442H47.7705V38.0442Z" fill="#6B6B6B"/>
<path d="M56.3345 41.2616C56.3345 41.8163 56.2553 42.3024 56.0915 42.7251C55.9277 43.1477 55.7111 43.5017 55.4364 43.7817C55.1617 44.0617 54.8394 44.2783 54.4749 44.4209C54.1103 44.5636 53.7194 44.6376 53.3126 44.6376C52.9058 44.6376 52.5148 44.5636 52.1503 44.4209C51.7857 44.2783 51.4635 44.067 51.1887 43.7817C50.914 43.5017 50.6921 43.1477 50.5336 42.7251C50.3698 42.3024 50.2906 41.8163 50.2906 41.2616C50.2906 40.7069 50.3698 40.2261 50.5336 39.8035C50.6974 39.3861 50.914 39.0321 51.1887 38.7521C51.4635 38.4721 51.7857 38.2555 52.1503 38.1128C52.5148 37.9702 52.9058 37.8962 53.3126 37.8962C53.7194 37.8962 54.1103 37.9702 54.4749 38.1128C54.8394 38.2555 55.1617 38.4668 55.4364 38.7521C55.7111 39.0321 55.933 39.3861 56.0915 39.8035C56.2553 40.2261 56.3345 40.7122 56.3345 41.2616ZM55.6636 41.2616C55.6636 40.8284 55.6055 40.4374 55.4945 40.094C55.3836 39.7506 55.2251 39.4548 55.019 39.217C54.813 38.974 54.57 38.7891 54.2794 38.6623C53.9888 38.5355 53.6665 38.4721 53.3073 38.4721C52.948 38.4721 52.6258 38.5355 52.3352 38.6623C52.0446 38.7891 51.8016 38.974 51.5955 39.217C51.3895 39.46 51.231 39.7506 51.12 40.094C51.0091 40.4374 50.951 40.8284 50.951 41.2616C50.951 41.6948 51.0091 42.0858 51.12 42.4292C51.231 42.7726 51.3895 43.0685 51.5955 43.3062C51.8016 43.5492 52.0446 43.7341 52.3352 43.8662C52.6258 43.9983 52.948 44.0617 53.3073 44.0617C53.6665 44.0617 53.9888 43.9983 54.2794 43.8662C54.57 43.7341 54.813 43.5492 55.019 43.3062C55.2251 43.0632 55.3836 42.7726 55.4945 42.4292C55.6055 42.0858 55.6636 41.7001 55.6636 41.2616Z" fill="#6B6B6B"/>
<path d="M61.1211 43.5651C61.0577 43.4119 60.9679 43.2058 60.8569 42.9522C60.7407 42.6986 60.6139 42.4186 60.4712 42.1175C60.3286 41.8163 60.1807 41.5046 60.0327 41.1876C59.8848 40.8707 59.7421 40.5695 59.6048 40.2895C59.4674 40.0095 59.3459 39.7665 59.2403 39.5551C59.1346 39.3438 59.0553 39.1959 59.0078 39.1061C58.9285 39.8827 58.8651 40.7227 58.8176 41.6314C58.77 42.5401 58.7278 43.4964 58.6908 44.4949H58.0674C58.1255 43.3221 58.1889 42.1967 58.2576 41.1243C58.3263 40.0518 58.4161 39.0215 58.5217 38.0442H59.0818C59.2667 38.3559 59.4674 38.7151 59.6788 39.1166C59.8901 39.5235 60.1014 39.9461 60.3075 40.3846C60.5135 40.8231 60.7195 41.251 60.915 41.679C61.1105 42.1016 61.2848 42.4873 61.4328 42.8307C61.5807 42.4873 61.755 42.1069 61.9505 41.679C62.146 41.2563 62.3468 40.8231 62.5581 40.3846C62.7641 39.9461 62.9755 39.5235 63.1868 39.1166C63.3981 38.7098 63.5989 38.3506 63.7838 38.0442H64.3121C64.4178 39.0268 64.5076 40.0518 64.5763 41.1243C64.6449 42.1967 64.7136 43.3221 64.7665 44.4949H64.1219C64.0849 43.4964 64.0427 42.5401 63.9951 41.6314C63.9476 40.7227 63.8842 39.8827 63.8049 39.1061C63.7574 39.1906 63.6781 39.3438 63.5725 39.5551C63.4668 39.7665 63.3453 40.0095 63.2079 40.2895C63.0706 40.5695 62.9279 40.8707 62.78 41.1876C62.6321 41.5099 62.4841 41.8163 62.3415 42.1175C62.1988 42.4186 62.072 42.6986 61.9558 42.9522C61.8396 43.2058 61.755 43.4119 61.6916 43.5651H61.1211Z" fill="#6B6B6B"/>
<path d="M66.7318 44.4949V38.0442H70.4564V38.5936H67.3658V40.839H70.1183V41.3778H67.3658V43.9455H70.6995V44.4949H66.7318Z" fill="#6B6B6B"/>
<path d="M73.135 43.6073C73.1403 43.6655 73.1456 43.713 73.1456 43.7553C73.1456 43.7975 73.1456 43.8345 73.1456 43.8662C73.1456 44.2519 73.0928 44.6217 72.9818 44.9757C72.8709 45.3297 72.7229 45.6625 72.5328 45.9742L72.0837 45.7682C72.2263 45.4934 72.3267 45.2081 72.3848 44.907C72.4429 44.6059 72.4746 44.2942 72.4746 43.9719C72.4746 43.8979 72.4746 43.8345 72.4693 43.787C72.4641 43.7394 72.4641 43.676 72.4535 43.6126H73.135V43.6073Z" fill="#6B6B6B"/>
<path d="M79.4748 43.3854C79.6809 43.3854 79.8499 43.3696 79.982 43.3326C80.1141 43.3009 80.225 43.2534 80.3043 43.1953C80.3835 43.1371 80.4416 43.0685 80.4733 42.9839C80.505 42.9047 80.5209 42.8149 80.5209 42.7145C80.5209 42.5032 80.4205 42.3288 80.225 42.1862C80.0243 42.0488 79.6861 41.8956 79.2001 41.7371C78.9888 41.6631 78.7774 41.5786 78.5661 41.4835C78.3548 41.3884 78.1646 41.2669 78.0008 41.119C77.8317 40.971 77.6944 40.7967 77.5887 40.5906C77.483 40.3846 77.4302 40.131 77.4302 39.8299C77.4302 39.5287 77.4883 39.2646 77.5993 39.0268C77.7102 38.7891 77.8687 38.583 78.0748 38.4193C78.2808 38.2502 78.5291 38.1234 78.8197 38.0336C79.1103 37.9438 79.4378 37.8962 79.8076 37.8962C80.2409 37.8962 80.616 37.9438 80.933 38.0336C81.25 38.1234 81.5088 38.2291 81.7149 38.34L81.2975 39.4865C81.1179 39.3914 80.9171 39.3121 80.6952 39.2382C80.4733 39.1695 80.2092 39.1325 79.8975 39.1325C79.5488 39.1325 79.3005 39.18 79.1472 39.2751C78.994 39.3702 78.9201 39.5182 78.9201 39.7189C78.9201 39.8352 78.9465 39.9355 79.0046 40.0148C79.0627 40.094 79.142 40.168 79.2423 40.2314C79.3427 40.2948 79.4642 40.3582 79.5963 40.4057C79.7284 40.4586 79.8763 40.5114 80.0401 40.5695C80.3729 40.6963 80.6688 40.8178 80.9171 40.9393C81.1654 41.0609 81.3715 41.2035 81.5352 41.362C81.699 41.5258 81.8205 41.7107 81.9051 41.9273C81.9843 42.1439 82.0266 42.4081 82.0266 42.7198C82.0266 43.322 81.8153 43.787 81.3926 44.1198C80.9699 44.4526 80.336 44.6164 79.4854 44.6164C79.2001 44.6164 78.9412 44.6006 78.714 44.5636C78.4869 44.5319 78.2808 44.4896 78.1065 44.4368C77.9321 44.384 77.7789 44.3364 77.6521 44.2783C77.5253 44.2202 77.4196 44.1674 77.3298 44.1198L77.7419 42.9681C77.9321 43.0737 78.1699 43.1688 78.4552 43.2534C78.7193 43.3432 79.0627 43.3854 79.4748 43.3854Z" fill="#6B6B6B"/>
<path d="M88.1974 38.0442V39.2804H86.2532V44.4949H84.8003V39.2804H82.8561V38.0442H88.1974Z" fill="#6B6B6B"/>
<path d="M93.1582 44.4949C93.0843 44.273 93.0103 44.0406 92.9258 43.8028C92.8413 43.5651 92.762 43.3326 92.6775 43.0949H90.1574C90.0782 43.3326 89.9936 43.5651 89.9144 43.8028C89.8351 44.0406 89.7559 44.2677 89.6872 44.4896H88.1762C88.4192 43.7923 88.6517 43.153 88.8683 42.5613C89.0849 41.9696 89.3015 41.4148 89.5076 40.8971C89.7136 40.374 89.9197 39.8827 90.1257 39.4125C90.3265 38.9423 90.5378 38.4879 90.7544 38.0389H92.1333C92.3446 38.4879 92.556 38.9423 92.762 39.4125C92.9681 39.8827 93.1741 40.374 93.3854 40.8971C93.5967 41.4201 93.8081 41.9748 94.0247 42.5613C94.2413 43.153 94.4738 43.7923 94.7168 44.4896H93.1582V44.4949ZM91.4095 39.5076C91.3778 39.6027 91.3303 39.7295 91.2669 39.888C91.2035 40.0518 91.1348 40.2367 91.0555 40.448C90.9763 40.6593 90.8865 40.8918 90.7861 41.1454C90.6857 41.399 90.5853 41.6684 90.485 41.9431H92.3288C92.2284 41.6631 92.1333 41.3937 92.0435 41.1401C91.9484 40.8865 91.8639 40.6541 91.7793 40.4427C91.6948 40.2314 91.6208 40.0465 91.5627 39.8827C91.4993 39.7242 91.4518 39.5974 91.4095 39.5076Z" fill="#6B6B6B"/>
<path d="M97.4377 40.691C97.6965 40.2525 97.9448 39.814 98.1826 39.3755C98.4203 38.937 98.6369 38.4932 98.8324 38.0494H100.433C100.079 38.7468 99.7147 39.4178 99.3343 40.0676C98.9539 40.7174 98.5577 41.3726 98.135 42.033V44.5002H96.6822V42.0541C96.2595 41.399 95.858 40.7386 95.4776 40.0782C95.0972 39.4231 94.7274 38.7415 94.3734 38.0494H96.0587C96.2595 38.4932 96.4708 38.937 96.698 39.3755C96.9305 39.8087 97.1788 40.2525 97.4377 40.691Z" fill="#6B6B6B"/>
<path d="M106.15 43.3854C106.356 43.3854 106.525 43.3696 106.657 43.3326C106.789 43.3009 106.9 43.2534 106.979 43.1953C107.058 43.1371 107.116 43.0685 107.148 42.9839C107.18 42.9047 107.196 42.8149 107.196 42.7145C107.196 42.5032 107.095 42.3288 106.9 42.1862C106.699 42.0488 106.361 41.8956 105.875 41.7371C105.664 41.6631 105.452 41.5786 105.241 41.4835C105.03 41.3884 104.839 41.2669 104.676 41.119C104.507 40.971 104.369 40.7967 104.264 40.5906C104.158 40.3846 104.105 40.131 104.105 39.8299C104.105 39.5287 104.163 39.2646 104.274 39.0268C104.385 38.7891 104.544 38.583 104.75 38.4193C104.956 38.2502 105.204 38.1234 105.494 38.0336C105.785 37.9438 106.113 37.8962 106.482 37.8962C106.916 37.8962 107.291 37.9438 107.608 38.0336C107.925 38.1234 108.184 38.2291 108.39 38.34L107.972 39.4865C107.793 39.3914 107.592 39.3121 107.37 39.2382C107.148 39.1695 106.884 39.1325 106.572 39.1325C106.224 39.1325 105.975 39.18 105.822 39.2751C105.669 39.3702 105.595 39.5182 105.595 39.7189C105.595 39.8352 105.621 39.9355 105.679 40.0148C105.738 40.094 105.817 40.168 105.917 40.2314C106.018 40.2948 106.139 40.3582 106.271 40.4057C106.403 40.4586 106.551 40.5114 106.715 40.5695C107.048 40.6963 107.344 40.8178 107.592 40.9393C107.84 41.0609 108.046 41.2035 108.21 41.362C108.374 41.5258 108.495 41.7107 108.58 41.9273C108.659 42.1439 108.701 42.4081 108.701 42.7198C108.701 43.322 108.49 43.787 108.067 44.1198C107.645 44.4526 107.011 44.6164 106.16 44.6164C105.875 44.6164 105.616 44.6006 105.389 44.5636C105.162 44.5319 104.956 44.4896 104.781 44.4368C104.607 44.384 104.454 44.3364 104.327 44.2783C104.2 44.2202 104.094 44.1674 104.005 44.1198L104.417 42.9681C104.607 43.0737 104.845 43.1688 105.13 43.2534C105.394 43.3432 105.743 43.3854 106.15 43.3854Z" fill="#6B6B6B"/>
<path d="M114.603 44.4949C114.529 44.273 114.455 44.0406 114.37 43.8028C114.286 43.5651 114.206 43.3326 114.122 43.0949H111.602C111.523 43.3326 111.438 43.5651 111.359 43.8028C111.28 44.0406 111.2 44.2677 111.132 44.4896H109.626C109.869 43.7923 110.101 43.153 110.318 42.5613C110.535 41.9696 110.751 41.4148 110.957 40.8971C111.163 40.374 111.369 39.8827 111.575 39.4125C111.776 38.9423 111.987 38.4879 112.204 38.0389H113.583C113.794 38.4879 114.006 38.9423 114.212 39.4125C114.418 39.8827 114.624 40.374 114.835 40.8971C115.046 41.4201 115.258 41.9748 115.474 42.5613C115.691 43.153 115.923 43.7923 116.166 44.4896H114.603V44.4949ZM112.859 39.5076C112.828 39.6027 112.78 39.7295 112.717 39.888C112.653 40.0518 112.584 40.2367 112.505 40.448C112.426 40.6593 112.336 40.8918 112.236 41.1454C112.135 41.399 112.035 41.6684 111.935 41.9431H113.778C113.678 41.6631 113.583 41.3937 113.493 41.1401C113.398 40.8865 113.314 40.6541 113.229 40.4427C113.145 40.2314 113.071 40.0465 113.012 39.8827C112.944 39.7242 112.896 39.5974 112.859 39.5076Z" fill="#6B6B6B"/>
<path d="M117.45 44.4949V38.0442H121.767V39.2646H118.898V40.6118H121.45V41.8322H118.898V44.4949H117.45Z" fill="#6B6B6B"/>
<path d="M123.257 44.4949V38.0442H127.615V39.2646H124.709V40.5325H127.288V41.7265H124.709V43.2798H127.826V44.5002H123.257V44.4949Z" fill="#6B6B6B"/>
<path d="M12.2147 34.0923C12.2147 34.0923 12.2517 34.1346 12.3256 34.2191C12.3626 34.2614 12.4049 34.3142 12.4577 34.3776C12.4841 34.4093 12.5105 34.4463 12.537 34.4833C12.5528 34.5044 12.5634 34.5203 12.5792 34.5414C12.5951 34.5625 12.6056 34.5837 12.6215 34.6048C12.743 34.7844 12.8751 35.0063 13.0072 35.2863C13.0758 35.4237 13.134 35.5769 13.1974 35.7407C13.2555 35.9045 13.3136 36.0788 13.3664 36.269C13.4193 36.4539 13.4668 36.6547 13.5038 36.8607C13.546 37.0668 13.5777 37.2887 13.6042 37.5106C13.657 37.9649 13.6781 38.451 13.6728 38.9582C13.6676 39.4653 13.6306 39.9989 13.5725 40.5378C13.5672 40.6065 13.5566 40.6752 13.5513 40.7439C13.5408 40.8126 13.5355 40.8812 13.5249 40.9499C13.5091 41.0873 13.4879 41.2246 13.4721 41.3673C13.451 41.5046 13.4298 41.6473 13.4087 41.7899C13.3981 41.8586 13.3876 41.9326 13.3717 42.0013C13.3611 42.0699 13.3453 42.1439 13.3347 42.2126C13.1234 43.3538 12.8381 44.4262 12.5158 45.3719C12.1936 46.3229 11.8396 47.1576 11.5173 47.8392C11.195 48.526 10.8939 49.0596 10.6879 49.4241C10.4712 49.7887 10.3497 49.9841 10.3497 49.9841C10.3497 49.9841 10.4184 49.7623 10.5505 49.3607C10.672 48.9592 10.8622 48.3833 11.063 47.6648C11.269 46.9463 11.4962 46.0904 11.7234 45.1395C11.9505 44.1885 12.1724 43.1371 12.3732 42.0277C12.3838 41.959 12.3996 41.8903 12.4102 41.8216C12.4207 41.753 12.4313 41.6843 12.4471 41.6156C12.4736 41.4782 12.4947 41.3409 12.5211 41.2088C12.5422 41.0714 12.5634 40.9393 12.5845 40.8073C12.5951 40.7386 12.6056 40.6752 12.6162 40.6065C12.6268 40.5378 12.6373 40.4744 12.6479 40.411C12.7324 39.8827 12.8011 39.3808 12.854 38.9C12.9068 38.4193 12.9385 37.9649 12.9438 37.537C12.949 37.109 12.9332 36.7128 12.8909 36.3535C12.817 35.6298 12.6426 35.0539 12.4894 34.6682C12.4788 34.6418 12.4683 34.6207 12.463 34.5995C12.4524 34.5784 12.4419 34.5573 12.4366 34.5361C12.4207 34.4939 12.3996 34.4516 12.3838 34.4146C12.3468 34.3407 12.3204 34.2773 12.2939 34.2297C12.2411 34.1452 12.2147 34.0923 12.2147 34.0923Z" fill="#BF7737"/>
<path d="M9.16629 41.5099C9.16629 41.5099 9.18214 41.5363 9.21384 41.5892C9.22969 41.6156 9.24554 41.6473 9.26667 41.6843C9.27724 41.7054 9.28781 41.7265 9.29837 41.7477C9.30894 41.7688 9.31951 41.7952 9.33007 41.8216C9.42517 42.0277 9.5414 42.3447 9.6048 42.7567C9.6682 43.1688 9.68405 43.6655 9.62593 44.2043C9.56782 44.7432 9.4463 45.3138 9.29309 45.8897C8.68024 48.1984 7.70813 49.9472 7.70813 49.9472C7.70813 49.9472 7.73455 47.9501 8.3474 45.6414C8.50061 45.0602 8.67496 44.5319 8.81232 44.0511C8.95496 43.5704 9.05535 43.1371 9.11346 42.7673C9.17158 42.3922 9.18214 42.0805 9.17686 41.8639C9.17686 41.8375 9.17686 41.8111 9.17686 41.7846C9.17686 41.7582 9.17158 41.7371 9.17158 41.716C9.16629 41.6737 9.16629 41.6367 9.16629 41.6103C9.17158 41.5363 9.16629 41.5099 9.16629 41.5099Z" fill="#BF7737"/>
<path d="M4.95559 49.9683C4.95559 49.9683 4.92917 49.7464 4.89219 49.3554C4.87634 49.16 4.83936 48.9169 4.80766 48.6422C4.77596 48.3622 4.72841 48.0505 4.68086 47.7018C4.5752 47.0044 4.44312 46.1802 4.27934 45.2663C4.12085 44.3523 3.94122 43.3432 3.79329 42.2707C3.64537 41.1982 3.55027 40.1627 3.51329 39.217C3.508 38.9793 3.50272 38.7468 3.49744 38.5249C3.49744 38.2977 3.50272 38.0811 3.508 37.8698C3.508 37.817 3.508 37.7641 3.51329 37.7113C3.51329 37.6585 3.51857 37.6057 3.52385 37.5581C3.52914 37.4577 3.53442 37.3573 3.5397 37.257C3.55555 37.0615 3.56083 36.8766 3.58197 36.6969C3.61895 36.3377 3.67178 36.0101 3.75103 35.7248C3.83028 35.4448 3.92537 35.2071 4.02047 35.0275C4.11557 34.8478 4.21595 34.721 4.27934 34.6418C4.34803 34.5625 4.39029 34.5256 4.39029 34.5256C4.39029 34.5256 4.36387 34.5731 4.31633 34.6682C4.27406 34.7633 4.21066 34.9007 4.16312 35.0909C4.11028 35.2758 4.0733 35.5082 4.05745 35.783C4.0416 36.0524 4.04689 36.3641 4.0733 36.7128C4.1367 37.4102 4.21066 38.2396 4.33746 39.1536C4.45897 40.0676 4.61747 41.0767 4.76539 42.1386C4.91332 43.2058 5.02955 44.2255 5.10352 45.1659C5.17748 46.1063 5.18805 46.9569 5.1722 47.6754C5.16163 48.0346 5.15107 48.3569 5.11937 48.6369C5.09295 48.9222 5.0771 49.1652 5.0454 49.3607C4.99257 49.7517 4.95559 49.9683 4.95559 49.9683Z" fill="#BF7737"/>
<path d="M16.3303 6.75194C16.3303 6.75194 16.2299 6.7942 16.045 6.86817C15.8601 6.9527 15.5854 7.06893 15.2525 7.25912C14.9197 7.44403 14.5234 7.69234 14.0955 8.02518C14.0427 8.06745 13.9898 8.10971 13.9317 8.15198C13.8789 8.19425 13.8208 8.24179 13.7679 8.28934C13.7415 8.31047 13.7098 8.33689 13.6834 8.35802C13.657 8.38444 13.6306 8.40557 13.5989 8.43199C13.5408 8.47954 13.4879 8.53237 13.4298 8.57992C13.2026 8.78596 12.9755 9.01314 12.743 9.25616C11.8184 10.2388 10.8939 11.5755 10.149 13.1868C9.96405 13.5884 9.78442 14.011 9.62592 14.4442C9.54668 14.6609 9.46743 14.8827 9.39346 15.1099C9.35648 15.2209 9.31422 15.3371 9.28252 15.4533C9.24554 15.5696 9.20855 15.6858 9.17685 15.802C9.13987 15.9182 9.10817 16.0345 9.07119 16.1507C9.03949 16.2669 9.00251 16.3885 8.97081 16.5047C8.93911 16.6262 8.90741 16.7424 8.87571 16.8639C8.85986 16.9221 8.84401 16.9855 8.82816 17.0436C8.81232 17.1017 8.80175 17.1651 8.7859 17.2285C8.75948 17.35 8.72778 17.4715 8.70137 17.593C8.67495 17.7145 8.64854 17.8413 8.62212 17.9628C8.61155 18.0262 8.5957 18.0896 8.58514 18.1477C8.57457 18.2111 8.56401 18.2745 8.55344 18.3379C8.53231 18.4647 8.50589 18.5915 8.48476 18.7183C8.3157 19.7327 8.21532 20.7312 8.17305 21.7033C8.13078 22.6754 8.14135 23.6158 8.18362 24.514C8.22588 25.4121 8.29985 26.268 8.40551 27.0552C8.51117 27.8477 8.65382 28.5767 8.82288 29.2319C8.99194 29.887 9.1927 30.4681 9.39875 30.97C9.60479 31.4719 9.81612 31.884 10.0063 32.2168C10.1965 32.5497 10.3656 32.798 10.4765 32.9618C10.5927 33.1256 10.6561 33.2154 10.6561 33.2154C10.6561 33.2154 10.6403 33.1942 10.6033 33.1573C10.5663 33.1203 10.5135 33.0622 10.4448 32.9882C10.3075 32.835 10.1067 32.6131 9.87952 32.2961C9.64706 31.9844 9.3829 31.5882 9.11874 31.0968C8.85458 30.6055 8.59042 30.0296 8.35796 29.3692C8.1255 28.7088 7.91417 27.9692 7.7504 27.1608C7.58662 26.3525 7.45454 25.4861 7.36472 24.5668C7.26963 23.6475 7.22208 22.6754 7.23793 21.6663C7.25906 20.6573 7.34359 19.6059 7.52322 18.5493C7.54964 18.4172 7.57077 18.2851 7.59718 18.153C7.60775 18.0896 7.61832 18.021 7.63417 17.9576C7.65002 17.8942 7.66058 17.8255 7.67643 17.7621C7.70285 17.63 7.73455 17.5032 7.76096 17.3764C7.79266 17.2496 7.82436 17.1228 7.85606 16.996C7.87191 16.9326 7.88776 16.8692 7.90361 16.8058C7.91946 16.7424 7.94059 16.679 7.95644 16.6156C7.99342 16.4888 8.02512 16.3673 8.0621 16.2405C8.09909 16.119 8.13607 15.9975 8.17305 15.8707C8.21003 15.7492 8.24701 15.6277 8.28928 15.5062C8.33155 15.3846 8.36853 15.2684 8.41079 15.1469C8.45306 15.0307 8.49532 14.9144 8.53759 14.7982C8.62212 14.5658 8.71193 14.3333 8.80703 14.1114C8.99723 13.6623 9.19799 13.2291 9.41988 12.8117C10.2863 11.1581 11.3641 9.83203 12.4154 8.89691C12.6796 8.66445 12.9385 8.45312 13.1921 8.26293C13.2555 8.21538 13.3189 8.17311 13.3823 8.12556C13.414 8.10443 13.4457 8.0833 13.4774 8.05688C13.5091 8.03575 13.5408 8.01462 13.5725 7.99348C13.6359 7.95122 13.694 7.91424 13.7574 7.87197C13.8208 7.83499 13.8789 7.79801 13.937 7.76102C14.4125 7.47045 14.8457 7.26441 15.205 7.11119C15.5642 6.96327 15.8548 6.87873 16.0503 6.82062C16.2246 6.77835 16.3303 6.75194 16.3303 6.75194Z" fill="#BF7737"/>
<path d="M16.8797 3.04312C16.8797 3.04312 16.848 3.05897 16.7794 3.08539C16.716 3.1118 16.6156 3.15407 16.4941 3.21218C16.2458 3.32841 15.8918 3.52389 15.4533 3.80918C15.2367 3.95183 14.9936 4.11561 14.7348 4.29523C14.608 4.39033 14.4706 4.48543 14.3332 4.58581C14.1959 4.69147 14.0532 4.79713 13.9106 4.91336C13.3294 5.373 12.7007 5.92773 12.0562 6.59341C11.4117 7.25909 10.746 8.02515 10.1014 8.90216C10.0592 8.95499 10.0222 9.01311 9.97991 9.06594C9.94293 9.12405 9.90066 9.17688 9.86368 9.235C9.78443 9.34595 9.70519 9.46218 9.62594 9.57841C9.6048 9.60482 9.58367 9.63652 9.56782 9.66294C9.54669 9.69463 9.53084 9.72105 9.50971 9.75275C9.47273 9.81086 9.43046 9.86898 9.39348 9.93238C9.31423 10.0539 9.23498 10.1701 9.15574 10.2916C8.84931 10.783 8.54289 11.2902 8.25759 11.829C7.08473 13.9582 6.20772 16.5152 5.75337 19.2836C5.29373 22.0573 5.29901 24.757 5.45223 27.2136C5.52619 28.4446 5.63186 29.6122 5.72167 30.7111C5.81677 31.81 5.88545 32.8402 5.92771 33.7806C5.93828 34.0184 5.94356 34.2455 5.95413 34.4674C5.95941 34.6893 5.95941 34.9112 5.9647 35.1225C5.9647 35.2282 5.9647 35.3339 5.96998 35.4342C5.96998 35.4871 5.96998 35.5346 5.96998 35.5875C5.96998 35.6403 5.96998 35.6878 5.96998 35.7407C5.9647 35.9414 5.9647 36.1369 5.95941 36.3218C5.95941 36.4169 5.95413 36.5067 5.95413 36.5965C5.94885 36.6864 5.94356 36.7762 5.93828 36.8607C5.92771 37.0351 5.92243 37.1988 5.91186 37.3626C5.9013 37.6849 5.86431 37.9755 5.84318 38.2343C5.83262 38.3664 5.81677 38.4879 5.8062 38.6042C5.80092 38.6623 5.79563 38.7204 5.79035 38.7732C5.78507 38.826 5.7745 38.8789 5.76922 38.9317C5.7428 39.1325 5.71639 39.3015 5.70054 39.4389C5.66355 39.7136 5.64242 39.8563 5.64242 39.8563C5.64242 39.8563 5.6477 39.7136 5.65827 39.4336C5.66355 39.2962 5.67412 39.1272 5.6794 38.9211C5.6794 38.8683 5.68469 38.8208 5.68469 38.7626C5.68469 38.7098 5.68469 38.6517 5.68469 38.5936C5.68469 38.4774 5.68469 38.3558 5.68469 38.2238C5.68469 37.9596 5.69525 37.6743 5.6794 37.352C5.67412 37.1935 5.66884 37.0298 5.66355 36.8554C5.65827 36.7709 5.65827 36.6811 5.65827 36.5913C5.65299 36.5014 5.6477 36.4116 5.64242 36.3165C5.63186 36.1316 5.62129 35.9414 5.61072 35.7407C5.60544 35.6931 5.60544 35.6403 5.60016 35.5927C5.59487 35.5452 5.58959 35.4924 5.58959 35.4395C5.57902 35.3392 5.57374 35.2335 5.56317 35.1278C5.54732 34.9165 5.53147 34.7052 5.50506 34.4833C5.48393 34.2614 5.45751 34.0342 5.43109 33.8018C5.33071 32.8719 5.19863 31.8575 5.04542 30.7692C4.89749 29.6756 4.739 28.508 4.62277 27.2612C4.50125 26.0196 4.41672 24.7041 4.43257 23.3358C4.43786 22.6543 4.46427 21.9516 4.52239 21.2489C4.52767 21.1591 4.53824 21.0746 4.54352 20.9848C4.55409 20.895 4.55937 20.8051 4.56994 20.7206C4.59107 20.541 4.60692 20.3666 4.62805 20.187C4.6756 19.833 4.71786 19.4738 4.78126 19.1145C4.83409 18.7553 4.91334 18.4013 4.97674 18.0473C5.01901 17.873 5.05599 17.6986 5.09825 17.5243C5.11939 17.4398 5.13524 17.3499 5.16165 17.2654C5.18278 17.1809 5.20392 17.0911 5.23033 17.0065C5.25147 16.922 5.2726 16.8322 5.29901 16.7477L5.33071 16.6209C5.34128 16.5786 5.35713 16.5363 5.3677 16.4941C5.41524 16.325 5.46808 16.156 5.51562 15.9869C5.53676 15.9024 5.56846 15.8178 5.59487 15.7386C5.62129 15.6541 5.6477 15.5748 5.6794 15.4903C5.70582 15.4057 5.73224 15.3265 5.76393 15.242C5.79035 15.1574 5.82205 15.0782 5.85375 14.9989C5.91186 14.8352 5.97526 14.6767 6.03338 14.5182C6.09677 14.3597 6.16017 14.2012 6.22357 14.048C6.25527 13.9687 6.28697 13.8895 6.31867 13.8155C6.35565 13.7363 6.38735 13.6623 6.42433 13.5883C6.49301 13.4351 6.56169 13.2819 6.63038 13.134C6.70434 12.9861 6.7783 12.8381 6.84699 12.6902C6.88397 12.6162 6.92095 12.5423 6.95793 12.4683C6.99491 12.3943 7.03718 12.3257 7.07416 12.2517C7.15341 12.109 7.22737 11.9664 7.30134 11.829C7.38059 11.6917 7.45983 11.5543 7.53908 11.4169C7.85607 10.8728 8.1942 10.3603 8.53232 9.86898C8.61685 9.74747 8.70666 9.62595 8.7912 9.50972C8.83346 9.45161 8.87573 9.39349 8.91799 9.3301C8.93912 9.2984 8.96026 9.27198 8.98139 9.24028C9.00252 9.20858 9.02366 9.18217 9.05007 9.15575C9.13989 9.03952 9.2297 8.92857 9.31423 8.81763C9.3565 8.75951 9.40404 8.70668 9.44631 8.64857C9.49386 8.59574 9.53612 8.5429 9.58367 8.48479C10.2969 7.62363 11.0207 6.87342 11.7286 6.23416C12.4313 5.60018 13.1181 5.07714 13.7415 4.65449C13.9 4.55411 14.0532 4.45373 14.1959 4.35863C14.3438 4.26882 14.4865 4.179 14.6238 4.09976C14.8985 3.93598 15.1574 3.79333 15.3899 3.67182C15.8548 3.42351 16.2299 3.25973 16.4941 3.16463C16.6262 3.11709 16.7265 3.08539 16.7952 3.06425C16.8428 3.05369 16.8797 3.04312 16.8797 3.04312Z" fill="#BF7737"/>
<path d="M17.7515 2.77897C17.7515 2.77897 17.762 2.77897 17.7832 2.77369C17.7937 2.77369 17.8096 2.7684 17.8254 2.76312C17.8413 2.76312 17.8624 2.75784 17.8835 2.75255C17.9733 2.74199 18.1054 2.73142 18.2798 2.75784C18.4541 2.78425 18.6602 2.85293 18.8768 2.97973C19.0934 3.10653 19.3153 3.29672 19.5213 3.53975C19.6217 3.66126 19.7168 3.79862 19.8066 3.95183C19.8489 4.0258 19.8911 4.10505 19.9281 4.18958C19.9492 4.23184 19.9651 4.27411 19.9862 4.31637C20.0021 4.35864 20.0179 4.4009 20.0338 4.44845C20.0972 4.6228 20.15 4.80771 20.1976 4.99262C20.2451 5.18281 20.2874 5.37301 20.3349 5.56849C20.3772 5.76396 20.4194 5.95944 20.4723 6.15492C20.5251 6.3504 20.5779 6.54587 20.6519 6.73079C20.673 6.77833 20.6889 6.8206 20.71 6.86815C20.7206 6.88928 20.7312 6.91041 20.7417 6.93155L20.7734 6.99494L20.7893 7.02664L20.8051 7.05306C20.8157 7.07419 20.8315 7.09532 20.8421 7.11646C20.8738 7.15872 20.9055 7.20627 20.9319 7.24854C21.0587 7.43345 21.1961 7.63949 21.307 7.86667C21.418 8.09913 21.5025 8.35272 21.5131 8.63273C21.5183 8.77009 21.5025 8.91274 21.4655 9.04482C21.4285 9.1769 21.3704 9.30369 21.3017 9.41992C21.2648 9.47804 21.2172 9.54144 21.1644 9.59427C21.1063 9.6471 21.0429 9.69993 20.9689 9.73691C20.8949 9.7739 20.8104 9.80031 20.7312 9.81088C20.6519 9.82144 20.5727 9.81616 20.4987 9.8056C20.3508 9.77918 20.2345 9.72635 20.1236 9.66295C20.0179 9.59955 19.9281 9.53087 19.8436 9.45691C19.6745 9.30898 19.5372 9.15048 19.4156 8.99199C19.3998 8.97085 19.384 8.94972 19.3734 8.93387L19.3523 8.90217L19.3364 8.88104C19.3258 8.86519 19.3153 8.85462 19.3047 8.83877C19.2941 8.82821 19.2836 8.81236 19.2677 8.80179C19.2149 8.74896 19.1515 8.70141 19.0828 8.65386C18.9454 8.55877 18.7975 8.47952 18.6549 8.40027C18.5122 8.32102 18.3696 8.24706 18.2375 8.17309C17.9681 8.02516 17.7303 7.87723 17.5348 7.72402C17.3394 7.57081 17.1862 7.42288 17.0805 7.28024C16.9748 7.14287 16.9114 7.02136 16.8745 6.94211C16.8533 6.89985 16.848 6.86815 16.8375 6.84702C16.8322 6.82588 16.8269 6.81532 16.8269 6.81532C16.8269 6.81532 16.8322 6.82588 16.8428 6.84702C16.8533 6.86815 16.8692 6.89456 16.8956 6.93155C16.9431 7.00551 17.0224 7.11117 17.1439 7.22212C17.2654 7.33835 17.4292 7.45986 17.6299 7.57609C17.836 7.69232 18.079 7.80327 18.3537 7.9195C18.4964 7.97762 18.639 8.03573 18.7922 8.09913C18.9454 8.16253 19.1092 8.23121 19.2783 8.32631C19.3628 8.37385 19.4473 8.42669 19.5319 8.49537C19.553 8.51122 19.5741 8.53235 19.5953 8.5482C19.6164 8.56405 19.6375 8.59046 19.6587 8.6116L19.6851 8.6433L19.7062 8.66971C19.7221 8.68556 19.7326 8.70141 19.7485 8.72254C19.87 8.85462 19.9968 8.9867 20.1394 9.09237C20.2081 9.1452 20.2821 9.19275 20.356 9.22973C20.393 9.24558 20.43 9.26143 20.467 9.27728C20.504 9.28784 20.5357 9.29841 20.5674 9.29841C20.6308 9.30369 20.673 9.29313 20.71 9.27199C20.7312 9.26143 20.747 9.24558 20.7681 9.22445C20.7893 9.20331 20.8051 9.17161 20.8263 9.13991C20.9108 8.99199 20.953 8.83349 20.9425 8.65915C20.9319 8.4848 20.8738 8.29989 20.784 8.11498C20.6942 7.93007 20.5779 7.75044 20.4564 7.56553C20.4247 7.51798 20.393 7.47043 20.3613 7.42288C20.3455 7.39647 20.3296 7.37005 20.3138 7.34363L20.2874 7.30137L20.2662 7.2591C20.2504 7.23269 20.2398 7.20099 20.224 7.17457C20.2081 7.14816 20.1976 7.12174 20.187 7.09004C20.1659 7.03193 20.1394 6.97909 20.1236 6.92098C20.0443 6.69909 19.9915 6.47719 19.9492 6.26587C19.907 6.05454 19.8753 5.8485 19.8436 5.64773C19.8119 5.44697 19.7855 5.25678 19.7538 5.07715C19.7221 4.89224 19.6851 4.71789 19.6428 4.55412C19.6323 4.51185 19.6217 4.47487 19.6111 4.4326C19.6006 4.39562 19.5847 4.35336 19.5741 4.31637C19.5477 4.23713 19.5213 4.16844 19.4896 4.09448C19.4262 3.95183 19.3575 3.81975 19.2783 3.69824C19.1251 3.45522 18.9454 3.25974 18.7658 3.11709C18.5862 2.97445 18.4066 2.88463 18.2481 2.8318C18.0896 2.77897 17.9628 2.7684 17.873 2.76312C17.8518 2.76312 17.8307 2.76312 17.8149 2.76312C17.799 2.76312 17.7832 2.76312 17.7726 2.76312C17.762 2.77897 17.7515 2.77897 17.7515 2.77897Z" fill="#BF7737"/>
<path d="M11.5649 23.1033C11.5649 23.1033 11.549 23.172 11.5173 23.2988C11.4803 23.4256 11.4275 23.6105 11.3166 23.843C11.2109 24.0702 11.0524 24.3449 10.8252 24.6249C10.8094 24.6407 10.7988 24.6619 10.783 24.6777C10.7671 24.6936 10.7513 24.7147 10.7354 24.7306C10.7037 24.7675 10.672 24.8045 10.6403 24.8415C10.5769 24.9102 10.5082 24.9894 10.4343 25.0581C10.2863 25.206 10.1278 25.3487 9.94821 25.4913C9.59424 25.7766 9.18215 26.0566 8.7278 26.3261C8.27345 26.5955 7.77683 26.8597 7.25908 27.1291C7.13228 27.1978 7.0002 27.2665 6.86812 27.3352C6.74132 27.4038 6.60925 27.4778 6.47717 27.5465C6.21301 27.6944 5.94885 27.8476 5.68469 28.0061C5.15109 28.3284 4.60692 28.6824 4.06804 29.0575C3.79859 29.2477 3.53444 29.4379 3.28084 29.6281C3.02725 29.8235 2.78951 30.019 2.56233 30.2251C2.33515 30.4311 2.11854 30.6319 1.92835 30.8485C1.73287 31.0598 1.55324 31.2817 1.39475 31.5036C1.37362 31.53 1.35248 31.5617 1.33663 31.5881C1.3155 31.6145 1.29965 31.6462 1.27852 31.6726C1.24154 31.7308 1.20455 31.7836 1.16757 31.8417C1.13587 31.8998 1.09889 31.9579 1.06719 32.0108C1.05134 32.0372 1.03549 32.0689 1.01964 32.0953C1.00379 32.1217 0.987944 32.1534 0.977378 32.1798C0.945679 32.2379 0.919263 32.2961 0.887564 32.3542C0.861148 32.4123 0.834732 32.4651 0.8136 32.5232C0.766051 32.6395 0.723786 32.7557 0.686803 32.8666C0.544158 33.3263 0.475476 33.7859 0.480759 34.2086C0.480759 34.6259 0.544158 35.0116 0.644538 35.3339C0.692087 35.4977 0.755485 35.6403 0.8136 35.7724C0.876998 35.9045 0.945679 36.0207 1.00908 36.1211C1.04078 36.1686 1.07248 36.2215 1.10417 36.2637C1.13587 36.306 1.16757 36.3483 1.19399 36.3852C1.22569 36.4222 1.2521 36.4539 1.27852 36.4856C1.30494 36.5173 1.33135 36.5437 1.35248 36.5649C1.36305 36.5754 1.37362 36.586 1.38418 36.5966C1.39475 36.6071 1.40532 36.6177 1.4106 36.623C1.42645 36.6388 1.4423 36.6547 1.45286 36.6653C1.47928 36.6864 1.48985 36.7022 1.48985 36.7022C1.48985 36.7022 1.474 36.6917 1.44758 36.6758C1.43173 36.6653 1.41588 36.6547 1.39475 36.6441C1.38418 36.6388 1.37362 36.6283 1.36305 36.623C1.35248 36.6124 1.33663 36.6071 1.32607 36.5966C1.29965 36.5754 1.26795 36.5543 1.23625 36.5332C1.20455 36.5068 1.17286 36.4803 1.13059 36.4486C1.09361 36.4169 1.05663 36.38 1.01436 36.343C0.972095 36.306 0.935113 36.2584 0.887564 36.2162C0.803033 36.1211 0.713219 36.0154 0.623405 35.8833C0.533591 35.7565 0.44906 35.6086 0.369813 35.4448C0.211317 35.1173 0.0845211 34.7105 0.021123 34.2508C-0.0422752 33.7912 -0.0317088 33.2682 0.0792379 32.724C0.110937 32.5866 0.142636 32.4493 0.184901 32.3119C0.206034 32.2432 0.23245 32.1746 0.253583 32.1059C0.279999 32.0372 0.306415 31.9685 0.33283 31.8998C0.34868 31.8681 0.359246 31.8311 0.375096 31.7994C0.390945 31.7625 0.406795 31.7308 0.422644 31.6991C0.454344 31.6304 0.486043 31.5617 0.517742 31.493C0.554724 31.4243 0.591706 31.3609 0.628688 31.2923C0.649821 31.2606 0.665671 31.2236 0.686803 31.1919C0.707936 31.1602 0.729069 31.1285 0.750201 31.0915C0.908697 30.8273 1.09889 30.5685 1.29965 30.3202C1.50041 30.0666 1.72759 29.8341 1.96533 29.6016C2.20308 29.3692 2.45667 29.1526 2.72083 28.936C2.98499 28.7246 3.25971 28.5186 3.545 28.3231C4.1103 27.9322 4.68089 27.5782 5.24619 27.2665C5.53148 27.108 5.81149 26.9653 6.09149 26.828C6.23414 26.7593 6.3715 26.6959 6.50886 26.6325C6.64623 26.5691 6.78359 26.511 6.91567 26.4529C7.45455 26.2151 7.96174 26.0038 8.42666 25.7872C8.89158 25.5706 9.30895 25.354 9.67349 25.1268C9.8584 25.0158 10.0275 24.8996 10.1807 24.7834C10.2599 24.7253 10.3286 24.6672 10.4026 24.609C10.4395 24.5773 10.4712 24.5509 10.5029 24.5192C10.5188 24.5034 10.5346 24.4928 10.5505 24.477C10.5663 24.4611 10.5822 24.4453 10.598 24.4347C10.8464 24.2022 11.0365 23.9751 11.1739 23.7743C11.3166 23.5735 11.4011 23.4045 11.4592 23.2882C11.5385 23.1667 11.5649 23.1033 11.5649 23.1033Z" fill="#BF7737"/>
<path d="M15.765 16.4465C15.765 16.4465 15.485 16.7582 14.9989 17.2232C14.7559 17.4556 14.46 17.7251 14.1378 18.0156C13.8155 18.3062 13.4721 18.6285 13.1551 18.9825C12.9966 19.1621 12.8539 19.3417 12.7271 19.5266C12.6056 19.7063 12.5 19.8912 12.4154 20.0761C12.3309 20.261 12.2675 20.4459 12.22 20.6202C12.1724 20.7946 12.146 20.9637 12.1301 21.1221C12.1037 21.4339 12.1407 21.698 12.183 21.8776C12.1935 21.9199 12.2041 21.9622 12.2147 21.9992C12.2252 22.0309 12.2358 22.0626 12.2411 22.0837C12.2569 22.1312 12.2622 22.1576 12.2622 22.1576C12.2622 22.1576 12.2464 22.1365 12.2147 22.0995C12.1988 22.0784 12.1777 22.0573 12.1566 22.0256C12.1354 21.9939 12.1143 21.9569 12.0879 21.9199C12.0773 21.8988 12.0615 21.8776 12.0456 21.8565C12.035 21.8301 12.0192 21.809 12.0086 21.7825C11.9928 21.7561 11.9822 21.7297 11.9664 21.698C11.9505 21.6663 11.94 21.6346 11.9294 21.6029C11.9188 21.5712 11.903 21.5342 11.8924 21.5025C11.8818 21.4656 11.8713 21.4286 11.8607 21.3916C11.8343 21.3123 11.8237 21.2331 11.8079 21.1433C11.7815 20.9689 11.7709 20.7682 11.7815 20.5568C11.7973 20.3455 11.8343 20.1236 11.903 19.8912C11.9716 19.664 12.0667 19.4262 12.1988 19.1991C12.3309 18.9772 12.4841 18.7606 12.6637 18.5545C13.023 18.1477 13.4245 17.8413 13.7944 17.5824C14.1642 17.3288 14.5129 17.1281 14.8034 16.959C15.3846 16.6314 15.765 16.4465 15.765 16.4465Z" fill="#652281"/>
<path d="M15.4533 17.6511C15.4533 17.6511 15.4533 17.7304 15.448 17.873C15.4427 18.0157 15.4322 18.2217 15.4005 18.47C15.3688 18.7236 15.3265 19.0195 15.2473 19.347C15.1733 19.6746 15.0676 20.0286 14.925 20.3825C14.888 20.4723 14.8563 20.5569 14.814 20.652C14.7718 20.7418 14.7242 20.8316 14.6767 20.9161C14.5816 21.0852 14.4706 21.2384 14.3544 21.3705C14.1219 21.6399 13.8684 21.846 13.6253 21.9728C13.5038 22.0362 13.3876 22.0784 13.2872 22.1101C13.1815 22.1365 13.0917 22.1524 13.0178 22.1577C12.9438 22.163 12.8857 22.1577 12.8487 22.1577C12.8117 22.1524 12.7906 22.1524 12.7906 22.1524C12.7906 22.1524 12.8064 22.1471 12.8434 22.1313C12.8804 22.1154 12.928 22.0943 12.9861 22.0626C13.1076 21.9992 13.2661 21.8882 13.4246 21.7192C13.5831 21.5501 13.7468 21.3282 13.9001 21.0641C13.974 20.932 14.048 20.7893 14.1167 20.6414C14.1484 20.5674 14.1853 20.4882 14.2118 20.4142C14.2435 20.3297 14.2752 20.2452 14.3069 20.1606C14.4442 19.8119 14.5816 19.4844 14.7137 19.1885C14.8457 18.8927 14.9673 18.6232 15.0729 18.3961C15.1786 18.1689 15.2684 17.984 15.3371 17.8625C15.4163 17.7198 15.4533 17.6511 15.4533 17.6511Z" fill="#652281"/>
<path d="M19.0776 5.72698C19.0776 5.72698 19.0564 5.70585 19.03 5.66887C19.0142 5.65302 18.9983 5.6266 18.9772 5.60547C18.956 5.57905 18.9349 5.55264 18.9085 5.52622C18.8979 5.51037 18.8821 5.49452 18.8715 5.47867C18.861 5.46282 18.8451 5.44698 18.8293 5.43113C18.8028 5.39943 18.7711 5.36773 18.7447 5.33075C18.6866 5.26206 18.6285 5.1881 18.5809 5.10885C18.5281 5.0296 18.4806 4.94507 18.4383 4.86583C18.4172 4.82884 18.396 4.78658 18.3802 4.7496C18.3643 4.71261 18.3432 4.67563 18.3273 4.64393C18.3115 4.60695 18.2957 4.58053 18.2798 4.54883C18.264 4.51714 18.2534 4.496 18.2428 4.47487C18.2217 4.4326 18.2111 4.40619 18.2111 4.40619C18.2111 4.40619 18.2375 4.40619 18.2904 4.40619C18.3168 4.40619 18.3432 4.40619 18.3802 4.41147C18.4119 4.41676 18.4541 4.42204 18.4964 4.43789C18.5387 4.44845 18.5862 4.4643 18.6285 4.48544C18.676 4.50657 18.7236 4.53299 18.7711 4.56468C18.8662 4.62808 18.956 4.71261 19.03 4.82356C19.104 4.93451 19.1462 5.05074 19.1674 5.16168C19.1779 5.2198 19.1832 5.27263 19.1832 5.32546C19.1832 5.35188 19.1832 5.37301 19.1832 5.39943C19.1832 5.42056 19.1779 5.44697 19.1779 5.46811C19.1727 5.51037 19.1621 5.54736 19.1515 5.58434C19.141 5.61604 19.1304 5.64774 19.1251 5.66887C19.0881 5.70585 19.0776 5.72698 19.0776 5.72698Z" fill="#BF7737"/>
<path d="M18.8662 2.4831C18.8662 2.4831 18.8715 2.43027 18.8821 2.34046C18.8927 2.25064 18.9085 2.11856 18.9244 1.96007C18.9349 1.88082 18.9402 1.79629 18.9402 1.70647C18.9402 1.68534 18.9455 1.65364 18.9402 1.65364C18.9402 1.64836 18.9349 1.64308 18.9349 1.63779C18.9296 1.62723 18.9244 1.62194 18.9191 1.61666C18.9085 1.61138 18.8927 1.61666 18.8874 1.62723C18.8821 1.63251 18.8821 1.63779 18.8768 1.64308L18.8715 1.64836C18.8715 1.64308 18.8715 1.63779 18.8662 1.63251C18.8662 1.63251 18.8662 1.63251 18.861 1.63251L18.8504 1.63779C18.824 1.65364 18.7976 1.66949 18.7711 1.68006C18.7183 1.70647 18.6602 1.73289 18.6074 1.74874C18.5915 1.75402 18.5809 1.75931 18.5651 1.76459C18.5492 1.76987 18.544 1.76987 18.5334 1.77516C18.5123 1.78044 18.4911 1.78572 18.4753 1.79629C18.4383 1.81214 18.396 1.8227 18.359 1.83855C18.2851 1.87025 18.2217 1.90195 18.1636 1.93893C18.0526 2.0129 17.9892 2.09215 17.9786 2.17139C17.9734 2.20838 17.9786 2.24008 17.9786 2.26121C17.9839 2.28234 17.9892 2.29291 17.9892 2.29291C17.9892 2.29291 17.9786 2.28762 17.9628 2.27177C17.9469 2.25592 17.9205 2.22951 17.9047 2.18196C17.8835 2.13441 17.8783 2.07101 17.8888 1.99705C17.8994 1.92308 17.9311 1.84384 17.9786 1.76987C18.0262 1.69591 18.0896 1.62194 18.1636 1.55326C18.2005 1.51628 18.2428 1.48458 18.2851 1.45288C18.3062 1.43703 18.3326 1.42118 18.3538 1.40533C18.3643 1.40005 18.3802 1.38948 18.3907 1.3842C18.4013 1.37892 18.4066 1.37363 18.4172 1.36835C18.4541 1.34194 18.4858 1.31552 18.5228 1.2891C18.5387 1.27325 18.5598 1.26269 18.5757 1.24684L18.5809 1.24155L18.5968 1.23099C18.6074 1.22571 18.6179 1.21514 18.6285 1.20457C18.6496 1.18872 18.6708 1.16759 18.6866 1.14646L18.7183 1.12004C18.7289 1.10948 18.7394 1.09891 18.75 1.08834C18.7711 1.06721 18.7923 1.04079 18.8134 1.01966L18.8293 1.00381C18.8345 0.998529 18.8398 0.987962 18.8451 0.977396L18.8768 0.924564L18.9085 0.871732L18.9244 0.845316C18.9296 0.83475 18.9402 0.818901 18.9455 0.808334C19.0881 0.544175 19.2308 0.280016 19.3734 0.0105743C19.3787 0.0739725 19.384 0.15322 19.3893 0.227185C19.3893 0.26945 19.3946 0.306432 19.3946 0.343415C19.3946 0.364547 19.3946 0.38568 19.3946 0.406813C19.3999 0.517759 19.4051 0.623423 19.4051 0.723803C19.4051 0.824184 19.4104 0.919281 19.4051 1.01438C19.4051 1.06193 19.4051 1.10948 19.3999 1.15702C19.3999 1.20457 19.3946 1.25212 19.3893 1.29967C19.384 1.34722 19.3787 1.39477 19.3734 1.43703C19.3682 1.48458 19.3629 1.52685 19.347 1.56911C19.3365 1.61138 19.3259 1.65364 19.3153 1.69591C19.3048 1.74346 19.2942 1.75931 19.2836 1.78572C19.2466 1.88082 19.2044 1.96535 19.1674 2.03931C19.0881 2.18724 19.0036 2.29819 18.9508 2.37215C18.8979 2.44084 18.8662 2.4831 18.8662 2.4831Z" fill="#BF7737"/>
<path d="M20.1131 1.96007C20.1131 1.96007 20.1553 2.33517 19.9546 2.59933C19.7538 2.86349 19.3787 2.91632 19.3787 2.91632C19.3787 2.91632 19.3364 2.54122 19.5372 2.27706C19.738 2.0129 20.1131 1.96007 20.1131 1.96007Z" fill="#BF7737"/>
</g>
<defs>
<clipPath id="clip0">
<rect width="127.826" height="50" fill="white"/>
</clipPath>
</defs>
</svg>
